<?xml version="1.0" encoding="utf-8"?>
<!-- Generator: Adobe Illustrator 23.0.6, SVG Export Plug-In . SVG Version: 6.00 Build 0)  -->
<svg version="1.1" xmlns="http://www.w3.org/2000/svg" xmlns:xlink="http://www.w3.org/1999/xlink" x="0px" y="0px"
	 viewBox="0 0 492 492" style="enable-background:new 0 0 492 492;" xml:space="preserve">
<style type="text/css">
	.st0{fill-rule:evenodd;clip-rule:evenodd;}
</style>
<g id="Layer_1">
	<g>
		<path d="M115.3,187c10.5-21.9,26.6-40.7,46.4-54.3c22.3-15.4,49.3-24.4,78.5-24.4c38.2,0,72.8,15.5,97.9,40.5
			c25.1,25.1,40.5,59.7,40.5,97.9c0,5.8,4.7,10.6,10.6,10.6s10.6-4.7,10.6-10.6c0-44.1-17.9-83.9-46.7-112.8
			c-28.9-28.9-68.8-46.7-112.8-46.7c-33.6,0-64.7,10.4-90.5,28.2c-25.5,17.6-45.7,42.5-57.5,71.7H115.3z"/>
		<path d="M402.1,303.3l0-0.1h-22.8c-10.4,23.3-27.1,43.2-47.9,57.6c-22.3,15.4-49.3,24.4-78.5,24.4c-38.2,0-72.8-15.5-97.9-40.5
			c-25.1-25.1-40.5-59.7-40.5-97.9c0-5.8-4.7-10.6-10.6-10.6c-5.8,0-10.6,4.7-10.6,10.6c0,44.1,17.9,83.9,46.7,112.8
			c28.9,28.9,68.8,46.7,112.8,46.7c33.6,0,64.7-10.4,90.5-28.2C369.9,359.9,390.6,333.9,402.1,303.3z"/>
		<path d="M286.2,266.9c0,4.7-0.8,8.9-2.5,12.7c-1.6,3.7-4,7-7.1,9.7c-3,2.7-6.7,4.9-11,6.6c-4.3,1.6-9.1,2.6-14.3,3.1l-1.7,17.5
			c-0.1,0.4-0.2,0.8-0.4,1.1c-0.2,0.3-0.5,0.6-1.1,0.8c-0.5,0.2-1.2,0.4-2.1,0.5c-0.9,0.1-2,0.2-3.4,0.2c-1.7,0-3.2-0.1-4.2-0.3
			c-1.1-0.2-1.9-0.4-2.5-0.7c-0.6-0.3-1-0.7-1.2-1.2c-0.2-0.5-0.3-1.1-0.1-1.6l1.7-16.6c-2.3-0.3-4.5-0.8-6.6-1.3
			c-2.1-0.5-3.9-1.1-5.6-1.7c-1.7-0.6-3.2-1.3-4.4-1.9c-1.2-0.6-2.1-1.3-2.8-1.9c-0.6-0.6-1.1-1.6-1.3-2.8c-0.3-1.2-0.4-3-0.4-5.4
			c0-1.8,0.1-3.4,0.2-4.6c0.1-1.2,0.3-2.1,0.6-2.8c0.3-0.6,0.6-1.1,1-1.3c0.4-0.3,0.9-0.4,1.4-0.4c0.7,0,1.8,0.4,3.1,1.2
			c1.4,0.8,3.1,1.7,5.2,2.7c2.1,1,4.7,1.9,7.7,2.7c3,0.8,6.6,1.2,10.7,1.2c6.4,0,11.1-1.2,14.2-3.5c3.1-2.4,4.7-5.5,4.7-9.5
			c0-2.6-0.7-4.8-2-6.4c-1.3-1.7-3.1-3.2-5.4-4.5c-2.2-1.3-4.7-2.4-7.6-3.4c-2.8-1-5.7-2.1-8.6-3.2c-2.9-1.1-5.8-2.5-8.6-4
			c-2.8-1.5-5.3-3.4-7.6-5.6c-2.2-2.2-4-4.9-5.4-8.1c-1.3-3.2-2-7-2-11.5c0-4.1,0.7-7.8,2.1-11.2c1.3-3.3,3.3-6.3,5.9-8.8
			c2.5-2.5,5.7-4.5,9.4-6.1c3.7-1.6,8-2.6,12.7-3.2l1.6-16.4c0.1-0.4,0.2-0.8,0.4-1.1c0.2-0.3,0.6-0.6,1.1-0.8
			c0.5-0.3,1.2-0.4,2.1-0.5c0.9-0.1,2-0.2,3.4-0.2c1.7,0,3.1,0.1,4.2,0.3c1.1,0.2,2,0.4,2.6,0.7c0.6,0.3,1,0.7,1.1,1.2
			c0.2,0.5,0.3,1.1,0.3,1.6l-1.6,15.5c1.5,0.2,3.1,0.5,4.8,0.9c1.7,0.4,3.3,0.8,4.7,1.3c1.5,0.5,2.8,1.1,4,1.6
			c1.2,0.6,2,1.1,2.5,1.6c0.5,0.4,0.8,0.9,1.1,1.4c0.3,0.5,0.4,1,0.6,1.7c0.1,0.7,0.2,1.5,0.3,2.5c0.1,0.9,0.1,2,0.1,3.3
			c0,1.7,0,3.1-0.1,4.2c-0.1,1.1-0.3,1.9-0.5,2.5c-0.2,0.6-0.4,0.9-0.7,1.1s-0.6,0.3-1,0.3c-0.7,0-1.8-0.3-3.1-1.1
			c-1.4-0.7-3-1.5-5-2.3c-2-0.8-4.3-1.6-6.9-2.3c-2.6-0.7-5.4-1.1-8.5-1.1c-2.8,0-5.2,0.3-7.3,0.8c-2,0.6-3.6,1.3-4.9,2.3
			c-1.3,1-2.2,2.1-2.8,3.5c-0.6,1.3-0.9,2.8-0.9,4.5c0,2.5,0.7,4.7,2,6.4c1.4,1.8,3.2,3.2,5.4,4.5c2.3,1.3,4.8,2.4,7.7,3.4
			c2.9,1,5.8,2.1,8.8,3.3c3,1.1,5.9,2.5,8.7,4c2.9,1.5,5.4,3.3,7.6,5.6c2.2,2.2,4,4.9,5.4,8C285.5,258.7,286.2,262.4,286.2,266.9z"
			/>
		<polygon class="st0" points="103.7,211.2 145.5,253 61.9,253 		"/>
		<polygon class="st0" points="388.8,279.8 430.6,238 347,238 		"/>
	</g>
</g>
<g id="Master_Layer_2">
</g>
</svg>
